M48
;Layer_Color=9474304
;FILE_FORMAT=4:4
METRIC,LZ
;TYPE=PLATED
T2F00S00C0.6000
T4F00S00C1.0000
%
T02
X0043Y00079
X00478Y00209
X00477Y00228
X00547
X00189275Y0014525
T04
X00384Y00024
X004094
X004348
X004602
X004856
X00511
X005075Y001345
Y001795
X004425
Y001345
X00578Y001336
Y00159
Y001844
Y002098
Y001082
Y000828
X003586Y00024
X003332
X003078
X002824
X00257
X002316
X002062
X001808
X001812Y00276
X002066
X00232
X002574
X002828
X003082
X003336
X00359
X003844
X004098
X004352
X004606
X00486
X005114
M30
