G04*
G04 #@! TF.GenerationSoftware,Altium Limited,Altium Designer,20.0.2 (26)*
G04*
G04 Layer_Physical_Order=1*
G04 Layer_Color=255*
%FSLAX44Y44*%
%MOMM*%
G71*
G01*
G75*
%ADD15R,0.8000X0.8000*%
%ADD16R,0.7000X1.3000*%
%ADD17R,0.9000X1.3000*%
G04:AMPARAMS|DCode=18|XSize=0.9mm|YSize=1.3mm|CornerRadius=0mm|HoleSize=0mm|Usage=FLASHONLY|Rotation=135.000|XOffset=0mm|YOffset=0mm|HoleType=Round|Shape=Rectangle|*
%AMROTATEDRECTD18*
4,1,4,0.7778,0.1414,-0.1414,-0.7778,-0.7778,-0.1414,0.1414,0.7778,0.7778,0.1414,0.0*
%
%ADD18ROTATEDRECTD18*%

%ADD19R,1.3000X0.9000*%
G04:AMPARAMS|DCode=20|XSize=0.9mm|YSize=1.3mm|CornerRadius=0mm|HoleSize=0mm|Usage=FLASHONLY|Rotation=225.000|XOffset=0mm|YOffset=0mm|HoleType=Round|Shape=Rectangle|*
%AMROTATEDRECTD20*
4,1,4,-0.1414,0.7778,0.7778,-0.1414,0.1414,-0.7778,-0.7778,0.1414,-0.1414,0.7778,0.0*
%
%ADD20ROTATEDRECTD20*%

G04:AMPARAMS|DCode=21|XSize=0.55mm|YSize=1.5mm|CornerRadius=0mm|HoleSize=0mm|Usage=FLASHONLY|Rotation=315.000|XOffset=0mm|YOffset=0mm|HoleType=Round|Shape=Rectangle|*
%AMROTATEDRECTD21*
4,1,4,-0.7248,-0.3359,0.3359,0.7248,0.7248,0.3359,-0.3359,-0.7248,-0.7248,-0.3359,0.0*
%
%ADD21ROTATEDRECTD21*%

G04:AMPARAMS|DCode=22|XSize=0.55mm|YSize=1.5mm|CornerRadius=0mm|HoleSize=0mm|Usage=FLASHONLY|Rotation=45.000|XOffset=0mm|YOffset=0mm|HoleType=Round|Shape=Rectangle|*
%AMROTATEDRECTD22*
4,1,4,0.3359,-0.7248,-0.7248,0.3359,-0.3359,0.7248,0.7248,-0.3359,0.3359,-0.7248,0.0*
%
%ADD22ROTATEDRECTD22*%

%ADD23R,2.0000X5.5000*%
%ADD24R,1.3000X0.7000*%
%ADD25R,1.4000X2.0300*%
%ADD26R,2.1500X3.2500*%
%ADD27R,2.1500X0.9500*%
%ADD28R,1.3500X0.4000*%
%ADD29R,1.5000X1.5000*%
%ADD30R,0.8000X0.8000*%
%ADD52C,0.2500*%
%ADD53C,0.3000*%
%ADD54C,0.5000*%
%ADD55R,1.9000X1.9000*%
%ADD56C,1.9000*%
%ADD57R,1.9000X1.9000*%
%ADD58O,1.0000X1.3000*%
%ADD59O,1.5500X1.0000*%
%ADD60C,0.8000*%
G36*
X352948Y292612D02*
X352628Y291000D01*
Y289055D01*
X351687Y288666D01*
X348658Y286341D01*
X347100Y284311D01*
X345500D01*
X343941Y286341D01*
X340913Y288666D01*
X337385Y290127D01*
X333600Y290625D01*
X329815Y290127D01*
X326287Y288666D01*
X323259Y286341D01*
X321700Y284311D01*
X320100D01*
X318542Y286341D01*
X315513Y288666D01*
X311985Y290127D01*
X308200Y290625D01*
X304415Y290127D01*
X300887Y288666D01*
X297859Y286341D01*
X296300Y284311D01*
X294700D01*
X293141Y286341D01*
X290113Y288666D01*
X286585Y290127D01*
X282800Y290625D01*
X279015Y290127D01*
X275487Y288666D01*
X272458Y286341D01*
X270900Y284311D01*
X269300D01*
X267742Y286341D01*
X264713Y288666D01*
X261185Y290127D01*
X257400Y290625D01*
X253615Y290127D01*
X250087Y288666D01*
X247059Y286341D01*
X244734Y283312D01*
X244004Y281549D01*
X242734D01*
X242517Y282072D01*
X240587Y284587D01*
X238072Y286517D01*
X235143Y287730D01*
X233270Y287977D01*
Y276000D01*
Y264023D01*
X235143Y264270D01*
X238072Y265483D01*
X240587Y267413D01*
X242517Y269928D01*
X242734Y270451D01*
X244004D01*
X244734Y268687D01*
X247059Y265658D01*
X250087Y263334D01*
X253615Y261873D01*
X257400Y261375D01*
X261185Y261873D01*
X264102Y263082D01*
X309700Y217484D01*
X309223Y217008D01*
X315616Y210616D01*
X314718Y209718D01*
X315616Y208819D01*
X310638Y203841D01*
X316132Y198347D01*
X319400Y201615D01*
X320542Y201531D01*
X320937Y201356D01*
X321860Y200153D01*
X324334Y197679D01*
Y196409D01*
X323260Y195335D01*
X322110Y195811D01*
X320153Y196069D01*
X314931D01*
X299868Y211132D01*
X293998Y205261D01*
X288037D01*
X230451Y262847D01*
X230730Y263413D01*
Y276000D01*
Y287977D01*
X228857Y287730D01*
X225928Y286517D01*
X223413Y284587D01*
X221483Y282072D01*
X221266Y281549D01*
X219996D01*
X219266Y283312D01*
X216942Y286341D01*
X213913Y288666D01*
X210385Y290127D01*
X206600Y290625D01*
X203723Y290246D01*
X201260Y292709D01*
X201746Y293883D01*
X351998D01*
X352948Y292612D01*
D02*
G37*
G36*
X588878Y268111D02*
Y221331D01*
X587608Y220705D01*
X585312Y222466D01*
X581785Y223927D01*
X578000Y224425D01*
X574215Y223927D01*
X570687Y222466D01*
X567659Y220142D01*
X565334Y217113D01*
X563873Y213585D01*
X563375Y209800D01*
X563873Y206015D01*
X565334Y202488D01*
X567659Y199459D01*
X569689Y197900D01*
Y196300D01*
X567659Y194741D01*
X565334Y191713D01*
X563873Y188185D01*
X563375Y184400D01*
X563873Y180615D01*
X565334Y177087D01*
X567659Y174058D01*
X569689Y172500D01*
Y170900D01*
X567659Y169342D01*
X565334Y166313D01*
X563873Y162785D01*
X563575Y160519D01*
X562234Y160064D01*
X554565Y167733D01*
Y223074D01*
X554861Y223461D01*
X555768Y225651D01*
X556078Y228000D01*
X555768Y230350D01*
X554861Y232539D01*
X553419Y234419D01*
X551539Y235861D01*
X549350Y236768D01*
X547000Y237078D01*
X544650Y236768D01*
X542461Y235861D01*
X540581Y234419D01*
X539138Y232539D01*
X538232Y230350D01*
X537922Y228000D01*
X538232Y225651D01*
X539138Y223461D01*
X539435Y223074D01*
Y164600D01*
X539693Y162642D01*
X540449Y160818D01*
X541651Y159251D01*
X563832Y137070D01*
X563375Y133600D01*
X563873Y129815D01*
X565334Y126287D01*
X567659Y123258D01*
X570687Y120934D01*
X572451Y120204D01*
Y118934D01*
X571928Y118717D01*
X569413Y116787D01*
X567483Y114272D01*
X566270Y111343D01*
X566023Y109470D01*
X578000D01*
X589977D01*
X589730Y111343D01*
X588517Y114272D01*
X586587Y116787D01*
X584072Y118717D01*
X583549Y118934D01*
Y120204D01*
X585312Y120934D01*
X588341Y123258D01*
X590666Y126287D01*
X592127Y129815D01*
X592612Y133504D01*
X593882Y133421D01*
Y6118D01*
X533907D01*
X533280Y7387D01*
X533678Y7905D01*
X534333Y9487D01*
X534556Y11183D01*
Y30000D01*
X534333Y31697D01*
X533678Y33278D01*
X532636Y34636D01*
X514000Y53272D01*
Y75500D01*
X512500D01*
Y91000D01*
X494500D01*
Y88540D01*
X489770D01*
Y82000D01*
X488500D01*
Y80730D01*
X481960D01*
Y75500D01*
X478000D01*
Y67599D01*
X476730Y66966D01*
X476284Y67302D01*
Y78089D01*
X475799Y80527D01*
X474417Y82595D01*
X435725Y121287D01*
X436211Y122460D01*
X441230D01*
Y133230D01*
X430460D01*
Y128211D01*
X429287Y127725D01*
X425760Y131252D01*
X423693Y132633D01*
X421254Y133118D01*
X416852D01*
X416366Y134291D01*
X417816Y135742D01*
X413484Y140075D01*
X420686Y147277D01*
X429495D01*
X430460Y146540D01*
Y135770D01*
X442500D01*
X454540D01*
Y146540D01*
X455505Y147277D01*
X469650D01*
X472088Y147762D01*
X474156Y149143D01*
X495180Y170168D01*
X496447Y170085D01*
X497159Y169158D01*
X500187Y166834D01*
X503715Y165373D01*
X507500Y164875D01*
X511285Y165373D01*
X514813Y166834D01*
X517841Y169158D01*
X520166Y172188D01*
X521627Y175715D01*
X522125Y179500D01*
X521627Y183285D01*
X520166Y186812D01*
X517841Y189841D01*
X514813Y192166D01*
X513872Y192555D01*
Y205860D01*
X532506Y224494D01*
X533887Y226561D01*
X534372Y229000D01*
Y282415D01*
X533887Y284854D01*
X532506Y286921D01*
X531973Y287454D01*
X532459Y288628D01*
X568360D01*
X588878Y268111D01*
D02*
G37*
G36*
X43600Y293150D02*
Y262850D01*
X45685D01*
Y249250D01*
X28250D01*
Y206750D01*
X59750D01*
Y222435D01*
X86250D01*
Y218250D01*
X117750D01*
Y237750D01*
X86250D01*
Y237565D01*
X61556D01*
X60719Y238520D01*
X60815Y239250D01*
X60815Y239250D01*
Y262850D01*
X67600D01*
Y272435D01*
X69062D01*
X71020Y272693D01*
X72845Y273449D01*
X74412Y274651D01*
X79227Y279466D01*
X80400Y278980D01*
Y262850D01*
X103935D01*
Y260750D01*
X86250D01*
Y241250D01*
X117750D01*
Y245435D01*
X123867D01*
X127992Y241310D01*
X127770Y240774D01*
Y231000D01*
Y221960D01*
X128435D01*
Y219500D01*
X128592Y218310D01*
X127770Y217227D01*
Y209270D01*
X133540D01*
Y209603D01*
X134713Y210089D01*
X136000Y208802D01*
Y196500D01*
X137935D01*
Y194633D01*
X113367Y170065D01*
X100500D01*
Y172000D01*
X65849D01*
X65782Y172051D01*
X63958Y172807D01*
X62000Y173065D01*
X52931D01*
X51952Y174335D01*
X52105Y175500D01*
Y175730D01*
X44500D01*
X36895D01*
Y175500D01*
X37154Y173532D01*
X37351Y173056D01*
X36646Y172000D01*
X32750D01*
Y158000D01*
X32750D01*
Y151500D01*
Y145000D01*
X35210D01*
Y140270D01*
X53790D01*
Y145000D01*
X56250D01*
Y153000D01*
X100500D01*
Y154935D01*
X116500D01*
X118458Y155193D01*
X120282Y155949D01*
X121849Y157151D01*
X150849Y186151D01*
X152051Y187718D01*
X152807Y189542D01*
X152936Y190521D01*
X153065Y191500D01*
X153065Y191500D01*
Y196500D01*
X155000D01*
Y219500D01*
X156063Y220000D01*
X168228D01*
X171515Y216713D01*
X171029Y215540D01*
X167270D01*
Y210770D01*
X175040D01*
Y211288D01*
X176201Y211792D01*
X177000Y211142D01*
Y203500D01*
X195000D01*
Y218500D01*
Y225802D01*
X211949Y242751D01*
X211949Y242751D01*
X213151Y244318D01*
X213907Y246142D01*
X214165Y248100D01*
X214165Y248100D01*
Y256078D01*
X215338Y256564D01*
X238729Y233173D01*
X238243Y232000D01*
X215000D01*
Y167000D01*
X245000D01*
Y173944D01*
X254500D01*
Y171000D01*
X277500D01*
Y172444D01*
X293000D01*
X296685Y168759D01*
X290184Y162258D01*
X294215Y158227D01*
X276213Y140225D01*
X275040Y140711D01*
Y140730D01*
X267270D01*
Y134960D01*
X269289D01*
X269775Y133787D01*
X268488Y132500D01*
X254500D01*
Y129372D01*
X245000D01*
Y137000D01*
X215000D01*
Y72000D01*
X230069D01*
X230555Y70827D01*
X224560Y64832D01*
X215076D01*
X213379Y64608D01*
X211798Y63953D01*
X210440Y62912D01*
X186028Y38500D01*
X166300D01*
Y9500D01*
X195300D01*
Y12486D01*
X196570Y13112D01*
X198887Y11334D01*
X202415Y9873D01*
X206200Y9375D01*
X209985Y9873D01*
X213513Y11334D01*
X216542Y13658D01*
X218100Y15689D01*
X219700D01*
X221259Y13658D01*
X224287Y11334D01*
X227815Y9873D01*
X231600Y9375D01*
X235385Y9873D01*
X238913Y11334D01*
X241942Y13658D01*
X243500Y15689D01*
X245100D01*
X246658Y13658D01*
X249687Y11334D01*
X253215Y9873D01*
X257000Y9375D01*
X260785Y9873D01*
X264313Y11334D01*
X267341Y13658D01*
X268900Y15689D01*
X270500D01*
X272059Y13658D01*
X275087Y11334D01*
X278615Y9873D01*
X282400Y9375D01*
X286185Y9873D01*
X289713Y11334D01*
X292742Y13658D01*
X294300Y15689D01*
X295900D01*
X297458Y13658D01*
X300487Y11334D01*
X304015Y9873D01*
X307800Y9375D01*
X311585Y9873D01*
X315113Y11334D01*
X318141Y13658D01*
X319700Y15689D01*
X321300D01*
X322859Y13658D01*
X325887Y11334D01*
X329415Y9873D01*
X333200Y9375D01*
X336985Y9873D01*
X340513Y11334D01*
X343541Y13658D01*
X345100Y15689D01*
X346700D01*
X348259Y13658D01*
X351287Y11334D01*
X354815Y9873D01*
X358600Y9375D01*
X362385Y9873D01*
X365913Y11334D01*
X368941Y13658D01*
X370500Y15689D01*
X372100D01*
X373658Y13658D01*
X376687Y11334D01*
X380215Y9873D01*
X384000Y9375D01*
X386279Y9675D01*
X388663Y7291D01*
X388177Y6118D01*
X6118D01*
Y115074D01*
X7387Y115157D01*
X7404Y115032D01*
X8164Y113197D01*
X9372Y111622D01*
X10948Y110414D01*
X12782Y109654D01*
X14750Y109395D01*
X16230D01*
Y117000D01*
Y124605D01*
X14750D01*
X12782Y124346D01*
X10948Y123586D01*
X9372Y122378D01*
X8164Y120802D01*
X7404Y118968D01*
X7387Y118843D01*
X6118Y118926D01*
Y185074D01*
X7387Y185157D01*
X7404Y185032D01*
X8164Y183197D01*
X9372Y181622D01*
X10948Y180414D01*
X12782Y179654D01*
X14750Y179395D01*
X16230D01*
Y187000D01*
Y194605D01*
X14750D01*
X12782Y194346D01*
X10948Y193586D01*
X9372Y192378D01*
X8164Y190802D01*
X7404Y188968D01*
X7387Y188843D01*
X6118Y188926D01*
Y293883D01*
X42633D01*
X43600Y293150D01*
D02*
G37*
G36*
X360541Y184179D02*
X366198Y178522D01*
X371855Y172865D01*
X377511Y167208D01*
X383168Y161551D01*
X388825Y155894D01*
X395719Y149000D01*
X389179Y142459D01*
X383522Y136802D01*
X377865Y131146D01*
X377511Y130792D01*
X366965Y120245D01*
X365369Y120044D01*
X349809Y135605D01*
Y143785D01*
X349809Y143785D01*
X349551Y145743D01*
X348796Y147568D01*
X347593Y149134D01*
X347593Y149134D01*
X330701Y166026D01*
X330489Y167208D01*
X341449Y178168D01*
X341802Y178522D01*
X347459Y184179D01*
X354000Y190719D01*
X360541Y184179D01*
D02*
G37*
G36*
X436628Y90360D02*
Y83192D01*
X435358Y82761D01*
X434664Y83664D01*
X433298Y84713D01*
X431707Y85372D01*
X431270Y85429D01*
Y79000D01*
X428730D01*
Y85429D01*
X428293Y85372D01*
X426702Y84713D01*
X425336Y83664D01*
X424287Y82298D01*
X423628Y80707D01*
X423404Y79000D01*
X423432Y78787D01*
X422229Y78194D01*
X419907Y80516D01*
X421797Y82406D01*
X416819Y87384D01*
X411841Y92362D01*
X409951Y90472D01*
X408211Y92211D01*
X419132Y103132D01*
X408064Y114200D01*
X408549Y115373D01*
X411615D01*
X436628Y90360D01*
D02*
G37*
G36*
X408594Y69202D02*
X410635Y71244D01*
X448851Y33028D01*
X447534Y31312D01*
X446804Y29549D01*
X445534D01*
X445317Y30072D01*
X443387Y32587D01*
X440872Y34517D01*
X437943Y35730D01*
X436070Y35977D01*
Y24000D01*
X433530D01*
Y35977D01*
X431657Y35730D01*
X428728Y34517D01*
X426213Y32587D01*
X424283Y30072D01*
X424066Y29549D01*
X422796D01*
X422066Y31312D01*
X419742Y34341D01*
X416713Y36666D01*
X413880Y37839D01*
X413646Y39619D01*
X412890Y41444D01*
X411688Y43011D01*
X411688Y43011D01*
X394433Y60265D01*
Y67123D01*
X394995Y67356D01*
X401819Y74180D01*
X402718Y73282D01*
X403616Y74180D01*
X408594Y69202D01*
D02*
G37*
%LPC*%
G36*
X307427Y215212D02*
X303347Y211132D01*
X308841Y205637D01*
X312922Y209718D01*
X307427Y215212D01*
D02*
G37*
G36*
X508770Y146477D02*
Y135770D01*
X519477D01*
X519230Y137643D01*
X518017Y140572D01*
X516087Y143087D01*
X513572Y145017D01*
X510643Y146230D01*
X508770Y146477D01*
D02*
G37*
G36*
X506230Y146477D02*
X504357Y146230D01*
X501428Y145017D01*
X498913Y143087D01*
X496983Y140572D01*
X495770Y137643D01*
X495523Y135770D01*
X506230D01*
Y146477D01*
D02*
G37*
G36*
Y133230D02*
X495523D01*
X495770Y131357D01*
X496983Y128428D01*
X498913Y125913D01*
X501428Y123983D01*
X504357Y122770D01*
X506230Y122523D01*
Y133230D01*
D02*
G37*
G36*
X519477D02*
X508770D01*
Y122523D01*
X510643Y122770D01*
X513572Y123983D01*
X516087Y125913D01*
X518017Y128428D01*
X519230Y131357D01*
X519477Y133230D01*
D02*
G37*
G36*
X454540Y133230D02*
X443770D01*
Y122460D01*
X454540D01*
Y133230D01*
D02*
G37*
G36*
X589977Y106930D02*
X578000D01*
X566023D01*
X566270Y105057D01*
X567483Y102128D01*
X569413Y99613D01*
X571928Y97683D01*
X574857Y96470D01*
X577188Y96163D01*
X577591Y96110D01*
X577508Y94840D01*
X565960D01*
Y84070D01*
X578000D01*
X590040D01*
Y94840D01*
X578492D01*
X578409Y96110D01*
X578812Y96163D01*
X581143Y96470D01*
X584072Y97683D01*
X586587Y99613D01*
X588517Y102128D01*
X589730Y105057D01*
X589977Y106930D01*
D02*
G37*
G36*
X487230Y88540D02*
X481960D01*
Y83270D01*
X487230D01*
Y88540D01*
D02*
G37*
G36*
X590040Y81530D02*
X579270D01*
Y70760D01*
X590040D01*
Y81530D01*
D02*
G37*
G36*
X576730D02*
X565960D01*
Y70760D01*
X576730D01*
Y81530D01*
D02*
G37*
G36*
X125230Y240040D02*
X119460D01*
Y232270D01*
X125230D01*
Y240040D01*
D02*
G37*
G36*
Y229730D02*
X119460D01*
Y221960D01*
X125230D01*
Y229730D01*
D02*
G37*
G36*
X164730Y215540D02*
X156960D01*
Y210770D01*
X164730D01*
Y215540D01*
D02*
G37*
G36*
X125230Y217040D02*
X119460D01*
Y209270D01*
X125230D01*
Y217040D01*
D02*
G37*
G36*
X115290Y212290D02*
X103270D01*
Y206270D01*
X115290D01*
Y212290D01*
D02*
G37*
G36*
X100730D02*
X88710D01*
Y206270D01*
X100730D01*
Y212290D01*
D02*
G37*
G36*
X175040Y208230D02*
X167270D01*
Y203460D01*
X175040D01*
Y208230D01*
D02*
G37*
G36*
X164730D02*
X156960D01*
Y203460D01*
X164730D01*
Y208230D01*
D02*
G37*
G36*
X133540Y206730D02*
X127770D01*
Y198960D01*
X133540D01*
Y206730D01*
D02*
G37*
G36*
X125230D02*
X119460D01*
Y198960D01*
X125230D01*
Y206730D01*
D02*
G37*
G36*
X115290Y203730D02*
X103270D01*
Y197710D01*
X115290D01*
Y203730D01*
D02*
G37*
G36*
X100730D02*
X88710D01*
Y197710D01*
X100730D01*
Y203730D01*
D02*
G37*
G36*
X20250Y194605D02*
X18770D01*
Y188270D01*
X27688D01*
X27596Y188968D01*
X26836Y190802D01*
X25628Y192378D01*
X24053Y193586D01*
X22218Y194346D01*
X20250Y194605D01*
D02*
G37*
G36*
X27688Y185730D02*
X18770D01*
Y179395D01*
X20250D01*
X22218Y179654D01*
X24053Y180414D01*
X25628Y181622D01*
X26836Y183197D01*
X27596Y185032D01*
X27688Y185730D01*
D02*
G37*
G36*
X45770Y185938D02*
Y178270D01*
X52105D01*
Y178500D01*
X51846Y180468D01*
X51086Y182302D01*
X49878Y183878D01*
X48302Y185086D01*
X46468Y185846D01*
X45770Y185938D01*
D02*
G37*
G36*
X43230D02*
X42532Y185846D01*
X40697Y185086D01*
X39122Y183878D01*
X37914Y182302D01*
X37154Y180468D01*
X36895Y178500D01*
Y178270D01*
X43230D01*
Y185938D01*
D02*
G37*
G36*
X27540Y172040D02*
X18770D01*
Y163270D01*
X27540D01*
Y172040D01*
D02*
G37*
G36*
X16230D02*
X7460D01*
Y163270D01*
X16230D01*
Y172040D01*
D02*
G37*
G36*
X275040Y168540D02*
X267270D01*
Y162770D01*
X275040D01*
Y168540D01*
D02*
G37*
G36*
X264730D02*
X256960D01*
Y162770D01*
X264730D01*
Y168540D01*
D02*
G37*
G36*
X275040Y160230D02*
X267270D01*
Y154460D01*
X275040D01*
Y160230D01*
D02*
G37*
G36*
X264730D02*
X256960D01*
Y154460D01*
X264730D01*
Y160230D01*
D02*
G37*
G36*
X190545Y151679D02*
Y146520D01*
X195704D01*
X195646Y146957D01*
X194988Y148548D01*
X193939Y149914D01*
X192573Y150963D01*
X190982Y151622D01*
X190545Y151679D01*
D02*
G37*
G36*
X188005D02*
X187568Y151622D01*
X185977Y150963D01*
X184611Y149914D01*
X183562Y148548D01*
X182903Y146957D01*
X182846Y146520D01*
X188005D01*
Y151679D01*
D02*
G37*
G36*
X76040Y150540D02*
X68270D01*
Y144770D01*
X76040D01*
Y150540D01*
D02*
G37*
G36*
X65730D02*
X57960D01*
Y144770D01*
X65730D01*
Y150540D01*
D02*
G37*
G36*
X98040D02*
X90270D01*
Y144770D01*
X98040D01*
Y150540D01*
D02*
G37*
G36*
X87730D02*
X79960D01*
Y144770D01*
X87730D01*
Y150540D01*
D02*
G37*
G36*
X275040Y149040D02*
X267270D01*
Y143270D01*
X275040D01*
Y149040D01*
D02*
G37*
G36*
X27540Y160730D02*
X7460D01*
Y152040D01*
X7460D01*
Y143270D01*
X27540D01*
Y151960D01*
X27540D01*
Y160730D01*
D02*
G37*
G36*
X264730Y149040D02*
X256960D01*
Y143270D01*
X264730D01*
Y149040D01*
D02*
G37*
G36*
X195704Y143980D02*
X190545D01*
Y138821D01*
X190982Y138878D01*
X192573Y139537D01*
X193939Y140586D01*
X194988Y141952D01*
X195646Y143543D01*
X195704Y143980D01*
D02*
G37*
G36*
X188005D02*
X182846D01*
X182903Y143543D01*
X183562Y141952D01*
X184611Y140586D01*
X185977Y139537D01*
X187568Y138878D01*
X188005Y138821D01*
Y143980D01*
D02*
G37*
G36*
X98040Y142230D02*
X90270D01*
Y136460D01*
X98040D01*
Y142230D01*
D02*
G37*
G36*
X87730D02*
X79960D01*
Y136460D01*
X87730D01*
Y142230D01*
D02*
G37*
G36*
X76040Y142230D02*
X68270D01*
Y136460D01*
X76040D01*
Y142230D01*
D02*
G37*
G36*
X65730D02*
X57960D01*
Y136460D01*
X65730D01*
Y142230D01*
D02*
G37*
G36*
X264730Y140730D02*
X256960D01*
Y134960D01*
X264730D01*
Y140730D01*
D02*
G37*
G36*
X27540D02*
X18770D01*
Y131960D01*
X27540D01*
Y140730D01*
D02*
G37*
G36*
X16230D02*
X7460D01*
Y131960D01*
X16230D01*
Y140730D01*
D02*
G37*
G36*
X53790Y137730D02*
X35210D01*
Y134460D01*
X37968D01*
X38595Y133190D01*
X37914Y132303D01*
X37154Y130468D01*
X36895Y128500D01*
Y128270D01*
X44500D01*
X52105D01*
Y128500D01*
X51846Y130468D01*
X51086Y132303D01*
X50405Y133190D01*
X51031Y134460D01*
X53790D01*
Y137730D01*
D02*
G37*
G36*
X20250Y124605D02*
X18770D01*
Y118270D01*
X27688D01*
X27596Y118968D01*
X26836Y120802D01*
X25628Y122378D01*
X24053Y123586D01*
X22218Y124346D01*
X20250Y124605D01*
D02*
G37*
G36*
X43230Y125730D02*
X36895D01*
Y125500D01*
X37154Y123532D01*
X37914Y121698D01*
X39122Y120122D01*
X40697Y118914D01*
X42532Y118154D01*
X43230Y118062D01*
Y125730D01*
D02*
G37*
G36*
X52105D02*
X45770D01*
Y118062D01*
X46468Y118154D01*
X48302Y118914D01*
X49878Y120122D01*
X51086Y121698D01*
X51846Y123532D01*
X52105Y125500D01*
Y125730D01*
D02*
G37*
G36*
X27688Y115730D02*
X18770D01*
Y109395D01*
X20250D01*
X22218Y109654D01*
X24053Y110414D01*
X25628Y111622D01*
X26836Y113197D01*
X27596Y115032D01*
X27688Y115730D01*
D02*
G37*
G36*
X419132Y99653D02*
X413637Y94158D01*
X417717Y90078D01*
X423212Y95573D01*
X419132Y99653D01*
D02*
G37*
G36*
X425008Y93777D02*
X419513Y88282D01*
X423593Y84202D01*
X429088Y89697D01*
X425008Y93777D01*
D02*
G37*
G36*
X402718Y71486D02*
X397223Y65992D01*
X401303Y61912D01*
X406797Y67407D01*
X402718Y71486D01*
D02*
G37*
%LPD*%
D15*
X503500Y82000D02*
D03*
X488500D02*
D03*
D16*
X505500Y64000D02*
D03*
X486500D02*
D03*
X463500Y228000D02*
D03*
X444500D02*
D03*
D17*
X464500Y207000D02*
D03*
X445500D02*
D03*
X126500Y231000D02*
D03*
X145500D02*
D03*
X126500Y208000D02*
D03*
X145500D02*
D03*
D18*
X417718Y88282D02*
D03*
X404282Y101718D02*
D03*
X402718Y73282D02*
D03*
X389282Y86718D02*
D03*
D19*
X266000Y161500D02*
D03*
Y180500D02*
D03*
Y142000D02*
D03*
Y123000D02*
D03*
X67000Y143500D02*
D03*
Y162500D02*
D03*
X89000Y143500D02*
D03*
Y162500D02*
D03*
D20*
X314718Y209718D02*
D03*
X301283Y196283D02*
D03*
D21*
X363899Y198498D02*
D03*
X369556Y192841D02*
D03*
X375213Y187184D02*
D03*
X380870Y181527D02*
D03*
X386527Y175870D02*
D03*
X392184Y170213D02*
D03*
X397841Y164556D02*
D03*
X403498Y158899D02*
D03*
X344100Y99502D02*
D03*
X338444Y105159D02*
D03*
X332787Y110816D02*
D03*
X327130Y116473D02*
D03*
X321473Y122130D02*
D03*
X315816Y127787D02*
D03*
X310159Y133444D02*
D03*
X304503Y139101D02*
D03*
D22*
X403498D02*
D03*
X397841Y133444D02*
D03*
X392184Y127787D02*
D03*
X386527Y122130D02*
D03*
X380870Y116473D02*
D03*
X375213Y110816D02*
D03*
X369556Y105159D02*
D03*
X363899Y99502D02*
D03*
X304503Y158899D02*
D03*
X310159Y164556D02*
D03*
X315816Y170213D02*
D03*
X321473Y175870D02*
D03*
X327130Y181527D02*
D03*
X332787Y187184D02*
D03*
X338444Y192841D02*
D03*
X344100Y198498D02*
D03*
D23*
X230000Y199500D02*
D03*
Y104500D02*
D03*
D24*
X166000Y228500D02*
D03*
Y209500D02*
D03*
D25*
X92400Y278000D02*
D03*
X55600D02*
D03*
D26*
X44000Y228000D02*
D03*
D27*
X102000Y251000D02*
D03*
X102000Y228000D02*
D03*
X102000Y205000D02*
D03*
D28*
X44500Y165000D02*
D03*
X44500Y158500D02*
D03*
Y152000D02*
D03*
Y145500D02*
D03*
Y139000D02*
D03*
D29*
X17500Y162000D02*
D03*
X17500Y142000D02*
D03*
D30*
X186000Y212500D02*
D03*
Y227500D02*
D03*
D52*
X578000Y159000D02*
X581786D01*
X344100Y99502D02*
X358600Y85003D01*
Y24000D02*
Y85003D01*
X325000Y237397D02*
Y259200D01*
Y237397D02*
X363899Y198498D01*
Y198498D02*
Y198498D01*
X333600Y255400D02*
X378000Y211000D01*
X333600Y255400D02*
Y276000D01*
X282800Y262625D02*
X331746Y213679D01*
Y210852D02*
Y213679D01*
X282800Y262625D02*
Y276000D01*
X331746Y210852D02*
X344100Y198498D01*
X308200Y276000D02*
X325000Y259200D01*
X435000Y236000D02*
X460600Y261600D01*
Y276000D01*
X397841Y164556D02*
X435000Y201716D01*
X409800Y199143D02*
Y276000D01*
X386527Y175870D02*
X409800Y199143D01*
X414254Y121746D02*
X443000Y93000D01*
X400346Y121746D02*
X414254D01*
X392184Y127787D02*
X394305D01*
X400346Y121746D01*
X406660Y126746D02*
X421254D01*
X399962Y133444D02*
X406660Y126746D01*
X469911Y64089D02*
X510000Y24000D01*
X397841Y133444D02*
X399962D01*
X421254Y126746D02*
X469911Y78089D01*
Y64089D02*
Y78089D01*
X206200Y27363D02*
X310159Y131322D01*
X469650Y153650D02*
X494250Y178250D01*
X511400Y243468D02*
Y276000D01*
X494250Y226318D02*
X511400Y243468D01*
X494250Y178250D02*
Y226318D01*
X398400Y290000D02*
X520415D01*
X363000Y295000D02*
X571000D01*
X418046Y153650D02*
X469650D01*
X403498Y139101D02*
X418046Y153650D01*
X403498Y139101D02*
Y139101D01*
X443500Y180500D02*
Y227000D01*
X571000Y295000D02*
X595250Y270750D01*
Y172465D02*
Y270750D01*
X503500Y82000D02*
X505500Y80000D01*
Y64000D02*
Y80000D01*
X464500Y207000D02*
X466500Y209000D01*
X478000D01*
X359000Y276000D02*
Y291000D01*
X363000Y295000D01*
X384400Y276000D02*
X398400Y290000D01*
X581786Y159000D02*
X595250Y172465D01*
X520415Y290000D02*
X528000Y282415D01*
Y229000D02*
Y282415D01*
X507500Y208500D02*
X528000Y229000D01*
X507500Y179500D02*
Y208500D01*
X444500Y228000D02*
Y231000D01*
X443500Y227000D02*
X444500Y228000D01*
X442500Y179500D02*
X443500Y180500D01*
X435000Y201716D02*
Y236000D01*
X434000Y261000D02*
Y274800D01*
X426000Y253000D02*
X434000Y261000D01*
X392184Y170213D02*
X426000Y204029D01*
X238750Y123000D02*
X266000D01*
X230000Y114250D02*
X238750Y123000D01*
X230000Y104500D02*
Y114250D01*
X303899Y158899D02*
X304503D01*
X268000Y123000D02*
X303899Y158899D01*
X266000Y123000D02*
X268000D01*
X369556Y192841D02*
X378000Y201284D01*
Y211000D01*
X359000Y245000D02*
Y276000D01*
Y245000D02*
X385000Y219000D01*
X375213Y187184D02*
X385000Y196971D01*
Y219000D01*
X384400Y276000D02*
X387250Y273150D01*
Y262750D02*
Y273150D01*
X396000Y196657D02*
Y254000D01*
X387250Y262750D02*
X396000Y254000D01*
X380870Y181527D02*
X396000Y196657D01*
X434000Y274800D02*
X435200Y276000D01*
X426000Y204029D02*
Y253000D01*
X510000Y24000D02*
X511000D01*
X485600D02*
Y39432D01*
X443000Y82032D02*
X485600Y39432D01*
X443000Y82032D02*
Y93000D01*
X231600Y43571D02*
X315816Y127787D01*
X231600Y24000D02*
Y43571D01*
X310159Y131322D02*
Y133444D01*
X206200Y24000D02*
Y27363D01*
D53*
X260456Y276000D02*
X326496Y209960D01*
X257400Y276000D02*
X260456D01*
X326496Y204789D02*
Y209960D01*
Y204789D02*
X338444Y192841D01*
X388428Y102723D02*
X460200Y30951D01*
X375213Y110816D02*
X375998D01*
X384091Y102723D01*
X388428D01*
X460200Y24000D02*
Y30951D01*
X253208Y84208D02*
Y87806D01*
X227276Y58276D02*
X253208Y84208D01*
X215076Y58276D02*
X227276D01*
X406856Y162258D02*
X462258D01*
X403498Y158899D02*
X406856Y162258D01*
X398226Y7000D02*
X523817D01*
X528000Y11183D02*
Y30000D01*
X523817Y7000D02*
X528000Y11183D01*
X384000Y21226D02*
X398226Y7000D01*
X399500Y108500D02*
X403282Y104718D01*
X391318Y108500D02*
X399500D01*
X391195Y108623D02*
X391318Y108500D01*
X390488Y108623D02*
X391195D01*
X382638Y116473D02*
X390488Y108623D01*
X486500Y61000D02*
Y64000D01*
Y61000D02*
X496500Y51000D01*
X507000D01*
X528000Y30000D01*
X384000Y21226D02*
Y24000D01*
X166000Y228500D02*
X169000D01*
X182500Y215000D01*
X183500D01*
X186000Y212500D01*
X486000Y186000D02*
Y276000D01*
X462258Y162258D02*
X486000Y186000D01*
X253208Y87806D02*
X304503Y139101D01*
X238500Y180500D02*
X266000D01*
X230000Y189000D02*
X238500Y180500D01*
X230000Y189000D02*
Y199500D01*
X266000Y180500D02*
X267500Y179000D01*
X295716D02*
X310159Y164556D01*
X267500Y179000D02*
X295716D01*
X380870Y116473D02*
X382638D01*
X403282Y104718D02*
X403283D01*
X363899Y99502D02*
X367258Y96144D01*
Y40742D02*
Y96144D01*
Y40742D02*
X384000Y24000D01*
X323000Y34200D02*
X333200Y24000D01*
X323000Y89716D02*
X338444Y105159D01*
X323000Y34200D02*
Y89716D01*
X307800Y85829D02*
X332787Y110816D01*
X307800Y24000D02*
Y85829D01*
X282400Y71743D02*
X327130Y116473D01*
X282400Y24000D02*
Y71743D01*
X257000Y57657D02*
X321473Y122130D01*
X257000Y24000D02*
Y57657D01*
X180800Y24000D02*
X215076Y58276D01*
D54*
X296868Y211132D02*
X313303D01*
X232000Y276000D02*
X296868Y211132D01*
X386868Y88303D02*
X388283Y89718D01*
X386868Y57132D02*
Y88303D01*
X53250Y280000D02*
X69062D01*
X53250Y239250D02*
Y280000D01*
X44000Y230000D02*
X102000D01*
X417718Y91283D02*
X430000Y79000D01*
X96000Y207000D02*
X125500D01*
X17500Y142000D02*
Y187000D01*
X89000Y143500D02*
X90750Y145250D01*
X332739Y164604D02*
X347813Y149530D01*
X321473Y175870D02*
X332739Y164604D01*
X337604D01*
X344000Y171000D02*
Y175971D01*
X337604Y164604D02*
X344000Y171000D01*
X332787Y187184D02*
X344000Y175971D01*
X102000Y253000D02*
X108000D01*
X92400Y280000D02*
X96400Y276000D01*
X127000Y253000D02*
X136000Y244000D01*
Y219500D02*
Y244000D01*
Y219500D02*
X145500Y210000D01*
X62000Y165500D02*
X65000Y162500D01*
X48750Y165500D02*
X62000D01*
X65000Y162500D02*
X67000D01*
X89000D01*
X434800Y24000D02*
Y40208D01*
X406328Y68680D02*
X434800Y40208D01*
X406328Y68680D02*
Y71672D01*
X409263Y115000D02*
X418132Y106132D01*
X394011Y115000D02*
X409263D01*
X418132Y92697D02*
Y106132D01*
X386527Y122130D02*
X386880D01*
X394011Y115000D01*
X67000Y143500D02*
X89000D01*
X44500Y139000D02*
X60500D01*
X65000Y143500D01*
X67000D01*
X44500Y139000D02*
Y145000D01*
X206600Y276000D02*
Y276671D01*
X189271Y294000D02*
X206600Y276671D01*
X83062Y294000D02*
X189271D01*
X69062Y280000D02*
X83062Y294000D01*
X96400Y276000D02*
X112027D01*
X320153Y188504D02*
X327130Y181527D01*
X309061Y188504D02*
X320153D01*
X189275Y145250D02*
X262750D01*
X90750D02*
X189275D01*
X315816Y170213D02*
X342244Y143785D01*
Y132471D02*
X369556Y105159D01*
X342244Y132471D02*
Y143785D01*
X347813Y149530D02*
X359127D01*
X386527Y122130D01*
X266000Y142000D02*
Y161500D01*
X262750Y145250D02*
X266000Y142000D01*
X166000Y177000D02*
Y209500D01*
X135750Y146750D02*
X166000Y177000D01*
X145500Y231000D02*
Y233000D01*
X148500Y236000D01*
X150500D01*
X154500Y240000D01*
X181000D01*
X186000Y227500D02*
Y235000D01*
X181000Y240000D02*
X186000Y235000D01*
X108000Y253000D02*
X127000D01*
X145500Y208000D02*
Y210000D01*
X44000Y230000D02*
X53250Y239250D01*
X126500Y208000D02*
Y231000D01*
X125500Y207000D02*
X126500Y208000D01*
X145500Y191500D02*
Y208000D01*
X116500Y162500D02*
X145500Y191500D01*
X89000Y162500D02*
X116500D01*
X44500Y177000D02*
X66000D01*
X96000Y207000D01*
X30250Y177000D02*
X44500D01*
X20250Y187000D02*
X30250Y177000D01*
X17500Y187000D02*
X20250D01*
X44500Y127000D02*
Y139000D01*
X17500Y117000D02*
X20250D01*
X30250Y127000D01*
X44500D01*
X17500Y117000D02*
Y142000D01*
X112027Y276000D02*
X181200D01*
X108000Y253000D02*
X111500Y256500D01*
Y275473D01*
X112027Y276000D01*
X299868Y197697D02*
X301283Y196283D01*
X284903Y197697D02*
X299868D01*
X206600Y276000D02*
X284903Y197697D01*
X206600Y248100D02*
Y276000D01*
X186000Y227500D02*
X206600Y248100D01*
X313303Y211132D02*
X314718Y209718D01*
X547000Y164600D02*
X578000Y133600D01*
X547000Y164600D02*
Y228000D01*
X463500D02*
X477000D01*
X533800Y108200D02*
X578000D01*
X507500Y134500D02*
X533800Y108200D01*
X578000Y82800D02*
Y108200D01*
X488500Y82000D02*
Y115500D01*
X507500Y134500D01*
X442500D02*
X507500D01*
X302697Y183333D02*
X315816Y170213D01*
X302697Y183333D02*
Y194868D01*
X301283Y196283D02*
X302697Y194868D01*
X301283Y196283D02*
X309061Y188504D01*
X301283Y196283D02*
X301283D01*
X314718Y205253D02*
X332787Y187184D01*
X314718Y205253D02*
Y209718D01*
X378720Y95996D02*
X384998Y89718D01*
X378526Y95996D02*
X378720D01*
X375304Y99218D02*
X378526Y95996D01*
X375304Y99218D02*
Y99411D01*
X369556Y105159D02*
X375304Y99411D01*
X406339Y27062D02*
X409400Y24000D01*
X406339Y27062D02*
Y37661D01*
X386868Y57132D02*
X406339Y37661D01*
X384998Y89718D02*
X388283D01*
D55*
X181200Y276000D02*
D03*
X442500Y134500D02*
D03*
X180800Y24000D02*
D03*
D56*
X206600Y276000D02*
D03*
X232000D02*
D03*
X257400D02*
D03*
X282800D02*
D03*
X308200D02*
D03*
X333600D02*
D03*
X359000D02*
D03*
X384400D02*
D03*
X409800D02*
D03*
X435200D02*
D03*
X460600D02*
D03*
X486000D02*
D03*
X511400D02*
D03*
X578000Y209800D02*
D03*
Y184400D02*
D03*
Y159000D02*
D03*
Y133600D02*
D03*
Y108200D02*
D03*
X507500Y134500D02*
D03*
X442500Y179500D02*
D03*
X507500D02*
D03*
X511000Y24000D02*
D03*
X485600D02*
D03*
X460200D02*
D03*
X434800D02*
D03*
X409400D02*
D03*
X384000D02*
D03*
X358600D02*
D03*
X333200D02*
D03*
X307800D02*
D03*
X282400D02*
D03*
X257000D02*
D03*
X231600D02*
D03*
X206200D02*
D03*
D57*
X578000Y82800D02*
D03*
D58*
X44500Y177000D02*
D03*
Y127000D02*
D03*
D59*
X17500Y187000D02*
D03*
Y117000D02*
D03*
D60*
X189275Y145250D02*
D03*
X430000Y79000D02*
D03*
X547000Y228000D02*
D03*
X477000D02*
D03*
X478000Y209000D02*
D03*
M02*
