G04*
G04 #@! TF.GenerationSoftware,Altium Limited,Altium Designer,20.0.2 (26)*
G04*
G04 Layer_Physical_Order=2*
G04 Layer_Color=16711680*
%FSLAX44Y44*%
%MOMM*%
G71*
G01*
G75*
%ADD24R,1.3000X0.7000*%
%ADD52C,0.2500*%
%ADD54C,0.5000*%
%ADD55R,1.9000X1.9000*%
%ADD56C,1.9000*%
%ADD57R,1.9000X1.9000*%
%ADD58O,1.0000X1.3000*%
%ADD59O,1.5500X1.0000*%
%ADD60C,0.8000*%
G36*
X593882Y209979D02*
X592612Y209896D01*
X592127Y213585D01*
X590666Y217113D01*
X588341Y220142D01*
X585312Y222466D01*
X581785Y223927D01*
X578000Y224425D01*
X574215Y223927D01*
X570687Y222466D01*
X567659Y220142D01*
X565334Y217113D01*
X564613Y215372D01*
X484454D01*
X484419Y215419D01*
X482539Y216861D01*
X480350Y217768D01*
X479157Y217925D01*
Y219206D01*
X479350Y219232D01*
X481539Y220138D01*
X481926Y220435D01*
X542074D01*
X542461Y220138D01*
X544650Y219232D01*
X547000Y218922D01*
X549350Y219232D01*
X551539Y220138D01*
X553419Y221581D01*
X554861Y223461D01*
X555768Y225651D01*
X556078Y228000D01*
X555768Y230350D01*
X554861Y232539D01*
X553419Y234419D01*
X551539Y235861D01*
X549350Y236768D01*
X547000Y237078D01*
X544650Y236768D01*
X542461Y235861D01*
X542074Y235565D01*
X481926D01*
X481539Y235861D01*
X479350Y236768D01*
X477000Y237078D01*
X474650Y236768D01*
X472461Y235861D01*
X470581Y234419D01*
X469139Y232539D01*
X468657Y231376D01*
X467346Y230065D01*
X446500D01*
Y231000D01*
X402500D01*
Y217771D01*
X401327Y217285D01*
X358367Y260245D01*
X358737Y260997D01*
X359029Y261379D01*
X362785Y261873D01*
X366313Y263334D01*
X369342Y265658D01*
X370900Y267689D01*
X372500D01*
X374058Y265658D01*
X377087Y263334D01*
X380615Y261873D01*
X384400Y261375D01*
X388185Y261873D01*
X391713Y263334D01*
X394742Y265658D01*
X396300Y267689D01*
X397900D01*
X399459Y265658D01*
X402487Y263334D01*
X403428Y262945D01*
Y250000D01*
X402500D01*
Y233000D01*
X446500D01*
Y250000D01*
X441572D01*
Y262945D01*
X442513Y263334D01*
X445541Y265658D01*
X447100Y267689D01*
X448700D01*
X450258Y265658D01*
X453287Y263334D01*
X456815Y261873D01*
X460600Y261375D01*
X464385Y261873D01*
X467913Y263334D01*
X470942Y265658D01*
X472500Y267689D01*
X474100D01*
X475658Y265658D01*
X478687Y263334D01*
X482215Y261873D01*
X486000Y261375D01*
X489785Y261873D01*
X493313Y263334D01*
X496342Y265658D01*
X497900Y267689D01*
X499500D01*
X501059Y265658D01*
X504087Y263334D01*
X507615Y261873D01*
X511400Y261375D01*
X515185Y261873D01*
X518713Y263334D01*
X521741Y265658D01*
X524066Y268687D01*
X525527Y272215D01*
X526025Y276000D01*
X525527Y279785D01*
X524066Y283312D01*
X521741Y286341D01*
X518713Y288666D01*
X515185Y290127D01*
X511400Y290625D01*
X507615Y290127D01*
X504087Y288666D01*
X501059Y286341D01*
X499500Y284311D01*
X497900D01*
X496342Y286341D01*
X493313Y288666D01*
X489785Y290127D01*
X486000Y290625D01*
X482215Y290127D01*
X478687Y288666D01*
X475658Y286341D01*
X474100Y284311D01*
X472500D01*
X470942Y286341D01*
X467913Y288666D01*
X464385Y290127D01*
X460600Y290625D01*
X456815Y290127D01*
X453287Y288666D01*
X450258Y286341D01*
X448700Y284311D01*
X447100D01*
X445541Y286341D01*
X442513Y288666D01*
X438985Y290127D01*
X435200Y290625D01*
X431415Y290127D01*
X427887Y288666D01*
X424859Y286341D01*
X423300Y284311D01*
X421700D01*
X420141Y286341D01*
X417113Y288666D01*
X413585Y290127D01*
X409800Y290625D01*
X406015Y290127D01*
X402487Y288666D01*
X399459Y286341D01*
X397900Y284311D01*
X396300D01*
X394742Y286341D01*
X391713Y288666D01*
X388185Y290127D01*
X384400Y290625D01*
X380615Y290127D01*
X377087Y288666D01*
X374058Y286341D01*
X372500Y284311D01*
X370900D01*
X369342Y286341D01*
X366313Y288666D01*
X362785Y290127D01*
X359000Y290625D01*
X355215Y290127D01*
X351687Y288666D01*
X348658Y286341D01*
X347100Y284311D01*
X345500D01*
X343941Y286341D01*
X340913Y288666D01*
X337385Y290127D01*
X333600Y290625D01*
X329815Y290127D01*
X326287Y288666D01*
X323259Y286341D01*
X321700Y284311D01*
X320100D01*
X318542Y286341D01*
X315513Y288666D01*
X311985Y290127D01*
X308200Y290625D01*
X304415Y290127D01*
X300887Y288666D01*
X297859Y286341D01*
X296300Y284311D01*
X294700D01*
X293141Y286341D01*
X290113Y288666D01*
X286585Y290127D01*
X282800Y290625D01*
X279015Y290127D01*
X275487Y288666D01*
X272458Y286341D01*
X270900Y284311D01*
X269300D01*
X267742Y286341D01*
X264713Y288666D01*
X261185Y290127D01*
X257400Y290625D01*
X253615Y290127D01*
X250087Y288666D01*
X247059Y286341D01*
X244734Y283312D01*
X244004Y281549D01*
X242734D01*
X242517Y282072D01*
X240587Y284587D01*
X238072Y286517D01*
X235143Y287730D01*
X233270Y287977D01*
Y276000D01*
Y264023D01*
X235143Y264270D01*
X238072Y265483D01*
X240587Y267413D01*
X242517Y269928D01*
X242734Y270451D01*
X244004D01*
X244734Y268687D01*
X247059Y265658D01*
X250087Y263334D01*
X253615Y261873D01*
X257400Y261375D01*
X261185Y261873D01*
X264713Y263334D01*
X267742Y265658D01*
X269300Y267689D01*
X270900D01*
X272458Y265658D01*
X275487Y263334D01*
X279015Y261873D01*
X282800Y261375D01*
X286585Y261873D01*
X290113Y263334D01*
X293141Y265658D01*
X294700Y267689D01*
X296300D01*
X297859Y265658D01*
X300887Y263334D01*
X304415Y261873D01*
X308200Y261375D01*
X311985Y261873D01*
X315513Y263334D01*
X318542Y265658D01*
X320100Y267689D01*
X321700D01*
X323259Y265658D01*
X326287Y263334D01*
X329815Y261873D01*
X333600Y261375D01*
X337385Y261873D01*
X338325Y262263D01*
X406094Y194494D01*
X408161Y193113D01*
X410600Y192628D01*
X433703D01*
X434134Y191358D01*
X432159Y189841D01*
X429834Y186813D01*
X428373Y183285D01*
X427875Y179500D01*
X428373Y175715D01*
X429834Y172187D01*
X432159Y169158D01*
X435187Y166834D01*
X438715Y165373D01*
X442500Y164875D01*
X446285Y165373D01*
X449813Y166834D01*
X452841Y169158D01*
X455166Y172187D01*
X455555Y173128D01*
X494445D01*
X494834Y172188D01*
X497159Y169158D01*
X500187Y166834D01*
X503715Y165373D01*
X507500Y164875D01*
X511285Y165373D01*
X514813Y166834D01*
X517841Y169158D01*
X520166Y172188D01*
X521627Y175715D01*
X522125Y179500D01*
X521627Y183285D01*
X520166Y186812D01*
X517841Y189841D01*
X515866Y191358D01*
X516297Y192628D01*
X534361D01*
X547094Y179894D01*
X549161Y178513D01*
X551600Y178028D01*
X564945D01*
X565334Y177087D01*
X567659Y174058D01*
X569689Y172500D01*
Y170900D01*
X567659Y169342D01*
X565334Y166313D01*
X563873Y162785D01*
X563375Y159000D01*
X563873Y155215D01*
X565334Y151687D01*
X567659Y148659D01*
X569689Y147100D01*
Y145500D01*
X567659Y143941D01*
X565334Y140913D01*
X563873Y137385D01*
X563375Y133600D01*
X563873Y129815D01*
X565334Y126287D01*
X567659Y123258D01*
X570687Y120934D01*
X572451Y120204D01*
Y118934D01*
X571928Y118717D01*
X569413Y116787D01*
X567483Y114272D01*
X566270Y111343D01*
X566023Y109470D01*
X578000D01*
Y106930D01*
X566023D01*
X566270Y105057D01*
X567483Y102128D01*
X569413Y99613D01*
X571928Y97683D01*
X574857Y96470D01*
X577591Y96110D01*
X577508Y94840D01*
X565960D01*
Y84070D01*
X578000D01*
Y82800D01*
X579270D01*
Y70760D01*
X586435D01*
Y35133D01*
X565867Y14565D01*
X523473D01*
X522911Y15704D01*
X523666Y16688D01*
X525127Y20215D01*
X525625Y24000D01*
X525127Y27785D01*
X523666Y31312D01*
X521342Y34341D01*
X518313Y36666D01*
X514785Y38127D01*
X511000Y38625D01*
X507215Y38127D01*
X503687Y36666D01*
X500658Y34341D01*
X499100Y32311D01*
X497500D01*
X495942Y34341D01*
X492913Y36666D01*
X489385Y38127D01*
X485600Y38625D01*
X481815Y38127D01*
X478287Y36666D01*
X475258Y34341D01*
X473700Y32311D01*
X472100D01*
X470541Y34341D01*
X467513Y36666D01*
X463985Y38127D01*
X460200Y38625D01*
X456415Y38127D01*
X452887Y36666D01*
X449859Y34341D01*
X447534Y31312D01*
X446804Y29549D01*
X445534D01*
X445317Y30072D01*
X443387Y32587D01*
X440872Y34517D01*
X437943Y35730D01*
X436070Y35977D01*
Y24000D01*
X433530D01*
Y35977D01*
X431657Y35730D01*
X428728Y34517D01*
X426213Y32587D01*
X424283Y30072D01*
X424066Y29549D01*
X422796D01*
X422066Y31312D01*
X419742Y34341D01*
X416713Y36666D01*
X413185Y38127D01*
X409400Y38625D01*
X405615Y38127D01*
X402087Y36666D01*
X399058Y34341D01*
X397500Y32311D01*
X395900D01*
X394342Y34341D01*
X391313Y36666D01*
X387785Y38127D01*
X384000Y38625D01*
X380215Y38127D01*
X376687Y36666D01*
X373658Y34341D01*
X372100Y32311D01*
X370500D01*
X368941Y34341D01*
X365913Y36666D01*
X362385Y38127D01*
X358600Y38625D01*
X354815Y38127D01*
X351287Y36666D01*
X348259Y34341D01*
X346700Y32311D01*
X345100D01*
X343541Y34341D01*
X340513Y36666D01*
X336985Y38127D01*
X333200Y38625D01*
X329415Y38127D01*
X325887Y36666D01*
X322859Y34341D01*
X321300Y32311D01*
X319700D01*
X318141Y34341D01*
X315113Y36666D01*
X311585Y38127D01*
X307800Y38625D01*
X304015Y38127D01*
X300487Y36666D01*
X297458Y34341D01*
X295900Y32311D01*
X294300D01*
X292742Y34341D01*
X289713Y36666D01*
X286185Y38127D01*
X282400Y38625D01*
X278615Y38127D01*
X275087Y36666D01*
X272059Y34341D01*
X270500Y32311D01*
X268900D01*
X267341Y34341D01*
X264313Y36666D01*
X260785Y38127D01*
X257000Y38625D01*
X253215Y38127D01*
X249687Y36666D01*
X246658Y34341D01*
X245100Y32311D01*
X243500D01*
X241942Y34341D01*
X238913Y36666D01*
X235385Y38127D01*
X231600Y38625D01*
X227815Y38127D01*
X224287Y36666D01*
X221259Y34341D01*
X219700Y32311D01*
X218100D01*
X216542Y34341D01*
X213513Y36666D01*
X209985Y38127D01*
X206200Y38625D01*
X202415Y38127D01*
X198887Y36666D01*
X196570Y34887D01*
X195300Y35514D01*
Y38500D01*
X166300D01*
Y9500D01*
X195300D01*
Y12486D01*
X196570Y13112D01*
X198887Y11334D01*
X202415Y9873D01*
X206200Y9375D01*
X209985Y9873D01*
X213513Y11334D01*
X216542Y13658D01*
X218100Y15689D01*
X219700D01*
X221259Y13658D01*
X224287Y11334D01*
X227815Y9873D01*
X231600Y9375D01*
X235385Y9873D01*
X238913Y11334D01*
X241942Y13658D01*
X243500Y15689D01*
X245100D01*
X246658Y13658D01*
X249687Y11334D01*
X253215Y9873D01*
X257000Y9375D01*
X260785Y9873D01*
X264313Y11334D01*
X267341Y13658D01*
X268900Y15689D01*
X270500D01*
X272059Y13658D01*
X275087Y11334D01*
X278615Y9873D01*
X282400Y9375D01*
X286185Y9873D01*
X289713Y11334D01*
X292742Y13658D01*
X294300Y15689D01*
X295900D01*
X297458Y13658D01*
X300487Y11334D01*
X304015Y9873D01*
X307800Y9375D01*
X311585Y9873D01*
X315113Y11334D01*
X318141Y13658D01*
X319700Y15689D01*
X321300D01*
X322859Y13658D01*
X325887Y11334D01*
X329415Y9873D01*
X333200Y9375D01*
X336985Y9873D01*
X340513Y11334D01*
X343541Y13658D01*
X345100Y15689D01*
X346700D01*
X348259Y13658D01*
X351287Y11334D01*
X354815Y9873D01*
X358600Y9375D01*
X362385Y9873D01*
X365913Y11334D01*
X368941Y13658D01*
X370500Y15689D01*
X372100D01*
X373658Y13658D01*
X376687Y11334D01*
X380215Y9873D01*
X384000Y9375D01*
X387785Y9873D01*
X391313Y11334D01*
X394342Y13658D01*
X395900Y15689D01*
X397500D01*
X399058Y13658D01*
X402087Y11334D01*
X402435Y11190D01*
Y10000D01*
X402693Y8042D01*
X402964Y7388D01*
X402116Y6118D01*
X6118D01*
Y115074D01*
X7387Y115157D01*
X7404Y115032D01*
X8164Y113197D01*
X9372Y111622D01*
X10948Y110414D01*
X12782Y109654D01*
X14750Y109395D01*
X16230D01*
Y117000D01*
Y124605D01*
X14750D01*
X12782Y124346D01*
X10948Y123586D01*
X9372Y122378D01*
X8164Y120802D01*
X7404Y118968D01*
X7387Y118843D01*
X6118Y118926D01*
Y185074D01*
X7387Y185157D01*
X7404Y185032D01*
X8164Y183197D01*
X9372Y181622D01*
X10948Y180414D01*
X12782Y179654D01*
X14750Y179395D01*
X16230D01*
Y187000D01*
Y194605D01*
X14750D01*
X12782Y194346D01*
X10948Y193586D01*
X9372Y192378D01*
X8164Y190802D01*
X7404Y188968D01*
X7387Y188843D01*
X6118Y188926D01*
Y293883D01*
X593882D01*
Y209979D01*
D02*
G37*
%LPC*%
G36*
X206600Y290625D02*
X202815Y290127D01*
X199287Y288666D01*
X196970Y286887D01*
X195700Y287514D01*
Y290500D01*
X166700D01*
Y261500D01*
X195700D01*
Y264486D01*
X196970Y265113D01*
X199287Y263334D01*
X202815Y261873D01*
X206600Y261375D01*
X210385Y261873D01*
X213913Y263334D01*
X216942Y265658D01*
X219266Y268687D01*
X219996Y270451D01*
X221266D01*
X221483Y269928D01*
X223413Y267413D01*
X225928Y265483D01*
X228857Y264270D01*
X230730Y264023D01*
Y276000D01*
Y287977D01*
X228857Y287730D01*
X225928Y286517D01*
X223413Y284587D01*
X221483Y282072D01*
X221266Y281549D01*
X219996D01*
X219266Y283312D01*
X216942Y286341D01*
X213913Y288666D01*
X210385Y290127D01*
X206600Y290625D01*
D02*
G37*
G36*
X20250Y194605D02*
X18770D01*
Y188270D01*
X27688D01*
X27596Y188968D01*
X26836Y190802D01*
X25628Y192378D01*
X24053Y193586D01*
X22218Y194346D01*
X20250Y194605D01*
D02*
G37*
G36*
X27688Y185730D02*
X18770D01*
Y179395D01*
X20250D01*
X22218Y179654D01*
X24053Y180414D01*
X25628Y181622D01*
X26836Y183197D01*
X27596Y185032D01*
X27688Y185730D01*
D02*
G37*
G36*
X45770Y185938D02*
Y178270D01*
X52105D01*
Y178500D01*
X51846Y180468D01*
X51086Y182302D01*
X49878Y183878D01*
X48302Y185086D01*
X46468Y185846D01*
X45770Y185938D01*
D02*
G37*
G36*
X43230D02*
X42532Y185846D01*
X40697Y185086D01*
X39122Y183878D01*
X37914Y182302D01*
X37154Y180468D01*
X36895Y178500D01*
Y178270D01*
X43230D01*
Y185938D01*
D02*
G37*
G36*
X52105Y175730D02*
X45770D01*
Y168062D01*
X46468Y168154D01*
X48302Y168914D01*
X49878Y170122D01*
X51086Y171697D01*
X51846Y173532D01*
X52105Y175500D01*
Y175730D01*
D02*
G37*
G36*
X43230D02*
X36895D01*
Y175500D01*
X37154Y173532D01*
X37914Y171697D01*
X39122Y170122D01*
X40697Y168914D01*
X42532Y168154D01*
X43230Y168062D01*
Y175730D01*
D02*
G37*
G36*
X190545Y151679D02*
Y146520D01*
X195704D01*
X195646Y146957D01*
X194988Y148548D01*
X193939Y149914D01*
X192573Y150963D01*
X190982Y151622D01*
X190545Y151679D01*
D02*
G37*
G36*
X188005D02*
X187568Y151622D01*
X185977Y150963D01*
X184611Y149914D01*
X183562Y148548D01*
X182903Y146957D01*
X182846Y146520D01*
X188005D01*
Y151679D01*
D02*
G37*
G36*
X195704Y143980D02*
X190545D01*
Y138821D01*
X190982Y138878D01*
X192573Y139537D01*
X193939Y140586D01*
X194988Y141952D01*
X195646Y143543D01*
X195704Y143980D01*
D02*
G37*
G36*
X188005D02*
X182846D01*
X182903Y143543D01*
X183562Y141952D01*
X184611Y140586D01*
X185977Y139537D01*
X187568Y138878D01*
X188005Y138821D01*
Y143980D01*
D02*
G37*
G36*
X454540Y146540D02*
X443770D01*
Y135770D01*
X454540D01*
Y146540D01*
D02*
G37*
G36*
X441230D02*
X430460D01*
Y135770D01*
X441230D01*
Y146540D01*
D02*
G37*
G36*
X508770Y146477D02*
Y135770D01*
X519477D01*
X519230Y137643D01*
X518017Y140572D01*
X516087Y143087D01*
X513572Y145017D01*
X510643Y146230D01*
X508770Y146477D01*
D02*
G37*
G36*
X506230Y146477D02*
X504357Y146230D01*
X501428Y145017D01*
X498913Y143087D01*
X496983Y140572D01*
X495770Y137643D01*
X495523Y135770D01*
X506230D01*
Y146477D01*
D02*
G37*
G36*
X45770Y135938D02*
Y128270D01*
X52105D01*
Y128500D01*
X51846Y130468D01*
X51086Y132303D01*
X49878Y133878D01*
X48302Y135086D01*
X46468Y135846D01*
X45770Y135938D01*
D02*
G37*
G36*
X43230Y135938D02*
X42532Y135846D01*
X40697Y135086D01*
X39122Y133878D01*
X37914Y132303D01*
X37154Y130468D01*
X36895Y128500D01*
Y128270D01*
X43230D01*
Y135938D01*
D02*
G37*
G36*
X506230Y133230D02*
X495523D01*
X495770Y131357D01*
X496983Y128428D01*
X498913Y125913D01*
X501428Y123983D01*
X504357Y122770D01*
X506230Y122523D01*
Y133230D01*
D02*
G37*
G36*
X519477D02*
X508770D01*
Y122523D01*
X510643Y122770D01*
X513572Y123983D01*
X516087Y125913D01*
X518017Y128428D01*
X519230Y131357D01*
X519477Y133230D01*
D02*
G37*
G36*
X454540Y133230D02*
X443770D01*
Y122460D01*
X454540D01*
Y133230D01*
D02*
G37*
G36*
X441230D02*
X430460D01*
Y122460D01*
X441230D01*
Y133230D01*
D02*
G37*
G36*
X20250Y124605D02*
X18770D01*
Y118270D01*
X27688D01*
X27596Y118968D01*
X26836Y120802D01*
X25628Y122378D01*
X24053Y123586D01*
X22218Y124346D01*
X20250Y124605D01*
D02*
G37*
G36*
X43230Y125730D02*
X36895D01*
Y125500D01*
X37154Y123532D01*
X37914Y121698D01*
X39122Y120122D01*
X40697Y118914D01*
X42532Y118154D01*
X43230Y118062D01*
Y125730D01*
D02*
G37*
G36*
X52105D02*
X45770D01*
Y118062D01*
X46468Y118154D01*
X48302Y118914D01*
X49878Y120122D01*
X51086Y121698D01*
X51846Y123532D01*
X52105Y125500D01*
Y125730D01*
D02*
G37*
G36*
X27688Y115730D02*
X18770D01*
Y109395D01*
X20250D01*
X22218Y109654D01*
X24053Y110414D01*
X25628Y111622D01*
X26836Y113197D01*
X27596Y115032D01*
X27688Y115730D01*
D02*
G37*
G36*
X431270Y85429D02*
Y80270D01*
X436429D01*
X436372Y80707D01*
X435713Y82298D01*
X434664Y83664D01*
X433298Y84713D01*
X431707Y85372D01*
X431270Y85429D01*
D02*
G37*
G36*
X428730D02*
X428293Y85372D01*
X426702Y84713D01*
X425336Y83664D01*
X424287Y82298D01*
X423628Y80707D01*
X423571Y80270D01*
X428730D01*
Y85429D01*
D02*
G37*
G36*
X436429Y77730D02*
X431270D01*
Y72571D01*
X431707Y72628D01*
X433298Y73287D01*
X434664Y74336D01*
X435713Y75702D01*
X436372Y77293D01*
X436429Y77730D01*
D02*
G37*
G36*
X428730D02*
X423571D01*
X423628Y77293D01*
X424287Y75702D01*
X425336Y74336D01*
X426702Y73287D01*
X428293Y72628D01*
X428730Y72571D01*
Y77730D01*
D02*
G37*
G36*
X576730Y81530D02*
X565960D01*
Y70760D01*
X576730D01*
Y81530D01*
D02*
G37*
%LPD*%
D24*
X414000Y241500D02*
D03*
Y222500D02*
D03*
X435000Y241500D02*
D03*
Y222500D02*
D03*
D52*
X410600Y199000D02*
X537000D01*
X333600Y276000D02*
X410600Y199000D01*
X442500Y179500D02*
X507500D01*
X435000Y241500D02*
X435200Y241700D01*
Y276000D01*
X409800Y243750D02*
Y276000D01*
Y243750D02*
X412050Y241500D01*
X414000D01*
X577200Y209000D02*
X578000Y209800D01*
X478000Y209000D02*
X577200D01*
X551600Y184400D02*
X578000D01*
X537000Y199000D02*
X551600Y184400D01*
D54*
X209000Y164975D02*
Y220000D01*
X189275Y145250D02*
X209000Y164975D01*
X232000Y243000D02*
Y276000D01*
X209000Y220000D02*
X232000Y243000D01*
X578000Y133600D02*
X581259D01*
X589529Y125330D01*
X591000D01*
X594000Y122330D01*
X569000Y7000D02*
X594000Y32000D01*
Y122330D01*
X413000Y7000D02*
X569000D01*
X409400Y24000D02*
X410000Y23400D01*
Y10000D02*
Y23400D01*
Y10000D02*
X413000Y7000D01*
X442500Y91500D02*
Y134500D01*
X430000Y79000D02*
X442500Y91500D01*
X434800Y24000D02*
Y72840D01*
X430000Y77640D02*
X434800Y72840D01*
X430000Y77640D02*
Y79000D01*
X414000Y222500D02*
X435000D01*
X470479D01*
X475979Y228000D01*
X477000D01*
X547000D01*
D55*
X181200Y276000D02*
D03*
X442500Y134500D02*
D03*
X180800Y24000D02*
D03*
D56*
X206600Y276000D02*
D03*
X232000D02*
D03*
X257400D02*
D03*
X282800D02*
D03*
X308200D02*
D03*
X333600D02*
D03*
X359000D02*
D03*
X384400D02*
D03*
X409800D02*
D03*
X435200D02*
D03*
X460600D02*
D03*
X486000D02*
D03*
X511400D02*
D03*
X578000Y209800D02*
D03*
Y184400D02*
D03*
Y159000D02*
D03*
Y133600D02*
D03*
Y108200D02*
D03*
X507500Y134500D02*
D03*
X442500Y179500D02*
D03*
X507500D02*
D03*
X511000Y24000D02*
D03*
X485600D02*
D03*
X460200D02*
D03*
X434800D02*
D03*
X409400D02*
D03*
X384000D02*
D03*
X358600D02*
D03*
X333200D02*
D03*
X307800D02*
D03*
X282400D02*
D03*
X257000D02*
D03*
X231600D02*
D03*
X206200D02*
D03*
D57*
X578000Y82800D02*
D03*
D58*
X44500Y177000D02*
D03*
Y127000D02*
D03*
D59*
X17500Y187000D02*
D03*
Y117000D02*
D03*
D60*
X189275Y145250D02*
D03*
X430000Y79000D02*
D03*
X547000Y228000D02*
D03*
X477000D02*
D03*
X478000Y209000D02*
D03*
M02*
