G04*
G04 #@! TF.GenerationSoftware,Altium Limited,Altium Designer,20.0.2 (26)*
G04*
G04 Layer_Color=32896*
%FSLAX44Y44*%
%MOMM*%
G71*
G01*
G75*
%ADD11C,0.2000*%
%ADD12C,0.1500*%
D11*
X524200Y263000D02*
Y289000D01*
X168200Y263000D02*
X524200D01*
X168200D02*
Y289000D01*
X524200D01*
X423000Y216000D02*
Y248000D01*
X405000Y216000D02*
X423000D01*
X405000D02*
Y248000D01*
X423000D01*
X444000Y216000D02*
Y248000D01*
X426000Y216000D02*
X444000D01*
X426000D02*
Y248000D01*
X444000D01*
X167800Y37000D02*
X523800D01*
X167800Y11000D02*
Y37000D01*
Y11000D02*
X523800D01*
Y37000D01*
D12*
X178106Y295000D02*
X177630Y294048D01*
X176202Y292620D01*
X186200D01*
X177707Y43000D02*
X177230Y42048D01*
X175802Y40620D01*
X185800D01*
X423000Y211998D02*
Y202000D01*
Y211998D02*
X418715D01*
X417287Y211522D01*
X416811Y211046D01*
X416335Y210093D01*
Y209141D01*
X416811Y208189D01*
X417287Y207713D01*
X418715Y207237D01*
X423000D01*
X419667D02*
X416335Y202000D01*
X409336Y211998D02*
X414097Y205333D01*
X406956D01*
X409336Y211998D02*
Y202000D01*
X444000Y211998D02*
Y202000D01*
Y211998D02*
X439715D01*
X438287Y211522D01*
X437811Y211046D01*
X437335Y210093D01*
Y209141D01*
X437811Y208189D01*
X438287Y207713D01*
X439715Y207237D01*
X444000D01*
X440667D02*
X437335Y202000D01*
X434145Y211998D02*
X428908D01*
X431764Y208189D01*
X430336D01*
X429384Y207713D01*
X428908Y207237D01*
X428432Y205809D01*
Y204856D01*
X428908Y203428D01*
X429860Y202476D01*
X431288Y202000D01*
X432717D01*
X434145Y202476D01*
X434621Y202952D01*
X435097Y203904D01*
X540239Y282998D02*
Y275380D01*
X540715Y273952D01*
X541191Y273476D01*
X542144Y273000D01*
X543096D01*
X544048Y273476D01*
X544524Y273952D01*
X545000Y275380D01*
Y276333D01*
X532907Y282998D02*
X537668Y276333D01*
X530527D01*
X532907Y282998D02*
Y273000D01*
X518541Y61170D02*
Y53552D01*
X519017Y52124D01*
X519493Y51648D01*
X520446Y51172D01*
X521398D01*
X522350Y51648D01*
X522826Y52124D01*
X523302Y53552D01*
Y54505D01*
X515018Y61170D02*
X509781D01*
X512638Y57361D01*
X511209D01*
X510257Y56885D01*
X509781Y56409D01*
X509305Y54981D01*
Y54029D01*
X509781Y52600D01*
X510733Y51648D01*
X512161Y51172D01*
X513590D01*
X515018Y51648D01*
X515494Y52124D01*
X515970Y53076D01*
M02*
