G04*
G04 #@! TF.GenerationSoftware,Altium Limited,Altium Designer,20.0.2 (26)*
G04*
G04 Layer_Color=8421504*
%FSLAX44Y44*%
%MOMM*%
G71*
G01*
G75*
%ADD15R,0.8000X0.8000*%
%ADD16R,0.7000X1.3000*%
%ADD17R,0.9000X1.3000*%
G04:AMPARAMS|DCode=18|XSize=0.9mm|YSize=1.3mm|CornerRadius=0mm|HoleSize=0mm|Usage=FLASHONLY|Rotation=135.000|XOffset=0mm|YOffset=0mm|HoleType=Round|Shape=Rectangle|*
%AMROTATEDRECTD18*
4,1,4,0.7778,0.1414,-0.1414,-0.7778,-0.7778,-0.1414,0.1414,0.7778,0.7778,0.1414,0.0*
%
%ADD18ROTATEDRECTD18*%

%ADD19R,1.3000X0.9000*%
G04:AMPARAMS|DCode=20|XSize=0.9mm|YSize=1.3mm|CornerRadius=0mm|HoleSize=0mm|Usage=FLASHONLY|Rotation=225.000|XOffset=0mm|YOffset=0mm|HoleType=Round|Shape=Rectangle|*
%AMROTATEDRECTD20*
4,1,4,-0.1414,0.7778,0.7778,-0.1414,0.1414,-0.7778,-0.7778,0.1414,-0.1414,0.7778,0.0*
%
%ADD20ROTATEDRECTD20*%

G04:AMPARAMS|DCode=21|XSize=0.55mm|YSize=1.5mm|CornerRadius=0mm|HoleSize=0mm|Usage=FLASHONLY|Rotation=315.000|XOffset=0mm|YOffset=0mm|HoleType=Round|Shape=Rectangle|*
%AMROTATEDRECTD21*
4,1,4,-0.7248,-0.3359,0.3359,0.7248,0.7248,0.3359,-0.3359,-0.7248,-0.7248,-0.3359,0.0*
%
%ADD21ROTATEDRECTD21*%

G04:AMPARAMS|DCode=22|XSize=0.55mm|YSize=1.5mm|CornerRadius=0mm|HoleSize=0mm|Usage=FLASHONLY|Rotation=45.000|XOffset=0mm|YOffset=0mm|HoleType=Round|Shape=Rectangle|*
%AMROTATEDRECTD22*
4,1,4,0.3359,-0.7248,-0.7248,0.3359,-0.3359,0.7248,0.7248,-0.3359,0.3359,-0.7248,0.0*
%
%ADD22ROTATEDRECTD22*%

%ADD23R,2.0000X5.5000*%
%ADD24R,1.3000X0.7000*%
%ADD25R,1.4000X2.0300*%
%ADD26R,2.1500X3.2500*%
%ADD27R,2.1500X0.9500*%
%ADD28R,1.3500X0.4000*%
%ADD29R,1.5000X1.5000*%
%ADD30R,0.8000X0.8000*%
D15*
X503500Y82000D02*
D03*
X488500D02*
D03*
D16*
X505500Y64000D02*
D03*
X486500D02*
D03*
X463500Y228000D02*
D03*
X444500D02*
D03*
D17*
X464500Y207000D02*
D03*
X445500D02*
D03*
X126500Y231000D02*
D03*
X145500D02*
D03*
X126500Y208000D02*
D03*
X145500D02*
D03*
D18*
X417718Y88282D02*
D03*
X404282Y101718D02*
D03*
X402718Y73282D02*
D03*
X389282Y86718D02*
D03*
D19*
X266000Y161500D02*
D03*
Y180500D02*
D03*
Y142000D02*
D03*
Y123000D02*
D03*
X67000Y143500D02*
D03*
Y162500D02*
D03*
X89000Y143500D02*
D03*
Y162500D02*
D03*
D20*
X314718Y209718D02*
D03*
X301283Y196283D02*
D03*
D21*
X363899Y198498D02*
D03*
X369556Y192841D02*
D03*
X375213Y187184D02*
D03*
X380870Y181527D02*
D03*
X386527Y175870D02*
D03*
X392184Y170213D02*
D03*
X397841Y164556D02*
D03*
X403498Y158899D02*
D03*
X344100Y99502D02*
D03*
X338444Y105159D02*
D03*
X332787Y110816D02*
D03*
X327130Y116473D02*
D03*
X321473Y122130D02*
D03*
X315816Y127787D02*
D03*
X310159Y133444D02*
D03*
X304503Y139101D02*
D03*
D22*
X403498D02*
D03*
X397841Y133444D02*
D03*
X392184Y127787D02*
D03*
X386527Y122130D02*
D03*
X380870Y116473D02*
D03*
X375213Y110816D02*
D03*
X369556Y105159D02*
D03*
X363899Y99502D02*
D03*
X304503Y158899D02*
D03*
X310159Y164556D02*
D03*
X315816Y170213D02*
D03*
X321473Y175870D02*
D03*
X327130Y181527D02*
D03*
X332787Y187184D02*
D03*
X338444Y192841D02*
D03*
X344100Y198498D02*
D03*
D23*
X230000Y199500D02*
D03*
Y104500D02*
D03*
D24*
X166000Y228500D02*
D03*
Y209500D02*
D03*
D25*
X92400Y278000D02*
D03*
X55600D02*
D03*
D26*
X44000Y228000D02*
D03*
D27*
X102000Y251000D02*
D03*
X102000Y228000D02*
D03*
X102000Y205000D02*
D03*
D28*
X44500Y165000D02*
D03*
X44500Y158500D02*
D03*
Y152000D02*
D03*
Y145500D02*
D03*
Y139000D02*
D03*
D29*
X17500Y162000D02*
D03*
X17500Y142000D02*
D03*
D30*
X186000Y212500D02*
D03*
Y227500D02*
D03*
M02*
